<svg xmlns="http://www.w3.org/2000/svg" version="1.1" xmlns:xlink="http://www.w3.org/1999/xlink" xmlns:svgjs="http://svgjs.dev/svgjs" width="1440" height="560" preserveAspectRatio="none" viewBox="0 0 1440 560"><g mask="url(&quot;#SvgjsMask1854&quot;)" fill="none"><rect width="1440" height="560" x="0" y="0" fill="url(&quot;#SvgjsLinearGradient1855&quot;)"></rect><path d="M-57.6 360.46L-57.6 360.46" stroke="#132e65" stroke-width="1.5"></path><path d="M-57.6 360.46L-69.3 558.5" stroke="#132e65" stroke-width="1.5"></path><path d="M-57.6 360.46L101.39 514.45" stroke="#132e65" stroke-width="1.5"></path><path d="M-69.3 558.5L-69.3 558.5" stroke="#132e65" stroke-width="1.5"></path><path d="M-69.3 558.5L-110.04 650.06" stroke="#132e65" stroke-width="1.5"></path><path d="M-69.3 558.5L101.39 514.45" stroke="#132e65" stroke-width="1.5"></path><path d="M-69.3 558.5L60.22 699.59" stroke="#132e65" stroke-width="1.5"></path><path d="M-110.04 650.06L-110.04 650.06" stroke="#132e65" stroke-width="1.5"></path><path d="M-110.04 650.06L60.22 699.59" stroke="#132e65" stroke-width="1.5"></path><path d="M-110.04 650.06L101.39 514.45" stroke="#132e65" stroke-width="1.5"></path><path d="M-110.04 650.06L-57.6 360.46" stroke="#132e65" stroke-width="1.5"></path><path d="M101.39 514.45L101.39 514.45" stroke="#132e65" stroke-width="1.5"></path><path d="M101.39 514.45L216.11 515.09" stroke="#132e65" stroke-width="1.5"></path><path d="M101.39 514.45L197.16 409.27" stroke="#132e65" stroke-width="1.5"></path><path d="M101.39 514.45L60.22 699.59" stroke="#132e65" stroke-width="1.5"></path><path d="M101.39 514.45L242.15 653.75" stroke="#132e65" stroke-width="1.5"></path><path d="M60.22 699.59L60.22 699.59" stroke="#132e65" stroke-width="1.5"></path><path d="M60.22 699.59L242.15 653.75" stroke="#132e65" stroke-width="1.5"></path><path d="M197.16 409.27L197.16 409.27" stroke="#132e65" stroke-width="1.5"></path><path d="M197.16 409.27L216.11 515.09" stroke="#132e65" stroke-width="1.5"></path><path d="M197.16 409.27L360.9 401.8" stroke="#132e65" stroke-width="1.5"></path><path d="M197.16 409.27L366.74 504.28" stroke="#132e65" stroke-width="1.5"></path><path d="M197.16 409.27L242.15 653.75" stroke="#132e65" stroke-width="1.5"></path><path d="M197.16 409.27L-57.6 360.46" stroke="#132e65" stroke-width="1.5"></path><path d="M216.11 515.09L216.11 515.09" stroke="#132e65" stroke-width="1.5"></path><path d="M216.11 515.09L242.15 653.75" stroke="#132e65" stroke-width="1.5"></path><path d="M216.11 515.09L366.74 504.28" stroke="#132e65" stroke-width="1.5"></path><path d="M216.11 515.09L360.9 401.8" stroke="#132e65" stroke-width="1.5"></path><path d="M242.15 653.75L242.15 653.75" stroke="#132e65" stroke-width="1.5"></path><path d="M242.15 653.75L349.91 662.12" stroke="#132e65" stroke-width="1.5"></path><path d="M242.15 653.75L366.74 504.28" stroke="#132e65" stroke-width="1.5"></path><path d="M360.9 401.8L360.9 401.8" stroke="#132e65" stroke-width="1.5"></path><path d="M360.9 401.8L366.74 504.28" stroke="#132e65" stroke-width="1.5"></path><path d="M360.9 401.8L539.05 384.14" stroke="#132e65" stroke-width="1.5"></path><path d="M360.9 401.8L536.32 541.99" stroke="#132e65" stroke-width="1.5"></path><path d="M366.74 504.28L366.74 504.28" stroke="#132e65" stroke-width="1.5"></path><path d="M366.74 504.28L349.91 662.12" stroke="#132e65" stroke-width="1.5"></path><path d="M366.74 504.28L536.32 541.99" stroke="#132e65" stroke-width="1.5"></path><path d="M349.91 662.12L349.91 662.12" stroke="#132e65" stroke-width="1.5"></path><path d="M349.91 662.12L526.57 693.71" stroke="#132e65" stroke-width="1.5"></path><path d="M349.91 662.12L216.11 515.09" stroke="#132e65" stroke-width="1.5"></path><path d="M349.91 662.12L536.32 541.99" stroke="#132e65" stroke-width="1.5"></path><path d="M539.05 384.14L539.05 384.14" stroke="#132e65" stroke-width="1.5"></path><path d="M539.05 384.14L664.28 389.84" stroke="#132e65" stroke-width="1.5"></path><path d="M539.05 384.14L536.32 541.99" stroke="#132e65" stroke-width="1.5"></path><path d="M539.05 384.14L642.35 528.88" stroke="#132e65" stroke-width="1.5"></path><path d="M539.05 384.14L366.74 504.28" stroke="#132e65" stroke-width="1.5"></path><path d="M539.05 384.14L827.35 379.38" stroke="#132e65" stroke-width="1.5"></path><path d="M536.32 541.99L536.32 541.99" stroke="#132e65" stroke-width="1.5"></path><path d="M536.32 541.99L642.35 528.88" stroke="#132e65" stroke-width="1.5"></path><path d="M536.32 541.99L526.57 693.71" stroke="#132e65" stroke-width="1.5"></path><path d="M526.57 693.71L526.57 693.71" stroke="#132e65" stroke-width="1.5"></path><path d="M526.57 693.71L675.25 661.68" stroke="#132e65" stroke-width="1.5"></path><path d="M526.57 693.71L642.35 528.88" stroke="#132e65" stroke-width="1.5"></path><path d="M664.28 389.84L664.28 389.84" stroke="#132e65" stroke-width="1.5"></path><path d="M642.35 528.88L642.35 528.88" stroke="#132e65" stroke-width="1.5"></path><path d="M642.35 528.88L675.25 661.68" stroke="#132e65" stroke-width="1.5"></path><path d="M675.25 661.68L675.25 661.68" stroke="#132e65" stroke-width="1.5"></path><path d="M675.25 661.68L821.1 690.79" stroke="#132e65" stroke-width="1.5"></path><path d="M675.25 661.68L536.32 541.99" stroke="#132e65" stroke-width="1.5"></path><path d="M675.25 661.68L822.17 510.1" stroke="#132e65" stroke-width="1.5"></path><path d="M836.63 216.49L836.63 216.49" stroke="#132e65" stroke-width="1.5"></path><path d="M836.63 216.49L966.3 230.01" stroke="#132e65" stroke-width="1.5"></path><path d="M836.63 216.49L827.35 379.38" stroke="#132e65" stroke-width="1.5"></path><path d="M836.63 216.49L971.98 358.81" stroke="#132e65" stroke-width="1.5"></path><path d="M836.63 216.49L1000.15 79.61" stroke="#132e65" stroke-width="1.5"></path><path d="M836.63 216.49L664.28 389.84" stroke="#132e65" stroke-width="1.5"></path><path d="M836.63 216.49L1103.79 211.82" stroke="#132e65" stroke-width="1.5"></path><path d="M827.35 379.38L827.35 379.38" stroke="#132e65" stroke-width="1.5"></path><path d="M827.35 379.38L822.17 510.1" stroke="#132e65" stroke-width="1.5"></path><path d="M827.35 379.38L971.98 358.81" stroke="#132e65" stroke-width="1.5"></path><path d="M822.17 510.1L822.17 510.1" stroke="#132e65" stroke-width="1.5"></path><path d="M822.17 510.1L821.1 690.79" stroke="#132e65" stroke-width="1.5"></path><path d="M822.17 510.1L642.35 528.88" stroke="#132e65" stroke-width="1.5"></path><path d="M822.17 510.1L1011.42 543.95" stroke="#132e65" stroke-width="1.5"></path><path d="M822.17 510.1L664.28 389.84" stroke="#132e65" stroke-width="1.5"></path><path d="M821.1 690.79L821.1 690.79" stroke="#132e65" stroke-width="1.5"></path><path d="M821.1 690.79L1005.37 665.91" stroke="#132e65" stroke-width="1.5"></path><path d="M821.1 690.79L1011.42 543.95" stroke="#132e65" stroke-width="1.5"></path><path d="M998.87 -38.28L998.87 -38.28" stroke="#132e65" stroke-width="1.5"></path><path d="M998.87 -38.28L1103.66 -53.92" stroke="#132e65" stroke-width="1.5"></path><path d="M998.87 -38.28L1000.15 79.61" stroke="#132e65" stroke-width="1.5"></path><path d="M998.87 -38.28L1130.04 90.39" stroke="#132e65" stroke-width="1.5"></path><path d="M998.87 -38.28L1259.25 -75.29" stroke="#132e65" stroke-width="1.5"></path><path d="M1000.15 79.61L1000.15 79.61" stroke="#132e65" stroke-width="1.5"></path><path d="M1000.15 79.61L1130.04 90.39" stroke="#132e65" stroke-width="1.5"></path><path d="M966.3 230.01L966.3 230.01" stroke="#132e65" stroke-width="1.5"></path><path d="M966.3 230.01L971.98 358.81" stroke="#132e65" stroke-width="1.5"></path><path d="M966.3 230.01L1103.79 211.82" stroke="#132e65" stroke-width="1.5"></path><path d="M966.3 230.01L1000.15 79.61" stroke="#132e65" stroke-width="1.5"></path><path d="M966.3 230.01L827.35 379.38" stroke="#132e65" stroke-width="1.5"></path><path d="M966.3 230.01L1130.04 90.39" stroke="#132e65" stroke-width="1.5"></path><path d="M971.98 358.81L971.98 358.81" stroke="#132e65" stroke-width="1.5"></path><path d="M971.98 358.81L1122.04 389.13" stroke="#132e65" stroke-width="1.5"></path><path d="M1011.42 543.95L1011.42 543.95" stroke="#132e65" stroke-width="1.5"></path><path d="M1011.42 543.95L1096.68 511.77" stroke="#132e65" stroke-width="1.5"></path><path d="M1011.42 543.95L1005.37 665.91" stroke="#132e65" stroke-width="1.5"></path><path d="M1011.42 543.95L971.98 358.81" stroke="#132e65" stroke-width="1.5"></path><path d="M1011.42 543.95L1122.04 389.13" stroke="#132e65" stroke-width="1.5"></path><path d="M1011.42 543.95L1146.41 695.21" stroke="#132e65" stroke-width="1.5"></path><path d="M1005.37 665.91L1005.37 665.91" stroke="#132e65" stroke-width="1.5"></path><path d="M1005.37 665.91L1146.41 695.21" stroke="#132e65" stroke-width="1.5"></path><path d="M1005.37 665.91L1096.68 511.77" stroke="#132e65" stroke-width="1.5"></path><path d="M1103.66 -53.92L1103.66 -53.92" stroke="#132e65" stroke-width="1.5"></path><path d="M1103.66 -53.92L1130.04 90.39" stroke="#132e65" stroke-width="1.5"></path><path d="M1103.66 -53.92L1259.25 -75.29" stroke="#132e65" stroke-width="1.5"></path><path d="M1103.66 -53.92L1000.15 79.61" stroke="#132e65" stroke-width="1.5"></path><path d="M1103.66 -53.92L1103.79 211.82" stroke="#132e65" stroke-width="1.5"></path><path d="M1130.04 90.39L1130.04 90.39" stroke="#132e65" stroke-width="1.5"></path><path d="M1130.04 90.39L1103.79 211.82" stroke="#132e65" stroke-width="1.5"></path><path d="M1103.79 211.82L1103.79 211.82" stroke="#132e65" stroke-width="1.5"></path><path d="M1103.79 211.82L1000.15 79.61" stroke="#132e65" stroke-width="1.5"></path><path d="M1122.04 389.13L1122.04 389.13" stroke="#132e65" stroke-width="1.5"></path><path d="M1122.04 389.13L1096.68 511.77" stroke="#132e65" stroke-width="1.5"></path><path d="M1122.04 389.13L1273.32 358.2" stroke="#132e65" stroke-width="1.5"></path><path d="M1122.04 389.13L1103.79 211.82" stroke="#132e65" stroke-width="1.5"></path><path d="M1096.68 511.77L1096.68 511.77" stroke="#132e65" stroke-width="1.5"></path><path d="M1146.41 695.21L1146.41 695.21" stroke="#132e65" stroke-width="1.5"></path><path d="M1146.41 695.21L1240.32 648.38" stroke="#132e65" stroke-width="1.5"></path><path d="M1146.41 695.21L1096.68 511.77" stroke="#132e65" stroke-width="1.5"></path><path d="M1259.25 -75.29L1259.25 -75.29" stroke="#132e65" stroke-width="1.5"></path><path d="M1259.25 -75.29L1451.28 -52.43" stroke="#132e65" stroke-width="1.5"></path><path d="M1259.25 -75.29L1130.04 90.39" stroke="#132e65" stroke-width="1.5"></path><path d="M1259.25 -75.29L1438.42 49.11" stroke="#132e65" stroke-width="1.5"></path><path d="M1259.25 -75.29L1555.66 -45.44" stroke="#132e65" stroke-width="1.5"></path><path d="M1273.32 358.2L1273.32 358.2" stroke="#132e65" stroke-width="1.5"></path><path d="M1273.32 358.2L1462.31 398.78" stroke="#132e65" stroke-width="1.5"></path><path d="M1273.32 358.2L1311.29 553.35" stroke="#132e65" stroke-width="1.5"></path><path d="M1311.29 553.35L1311.29 553.35" stroke="#132e65" stroke-width="1.5"></path><path d="M1311.29 553.35L1240.32 648.38" stroke="#132e65" stroke-width="1.5"></path><path d="M1311.29 553.35L1422.91 509.26" stroke="#132e65" stroke-width="1.5"></path><path d="M1311.29 553.35L1397.89 663.05" stroke="#132e65" stroke-width="1.5"></path><path d="M1240.32 648.38L1240.32 648.38" stroke="#132e65" stroke-width="1.5"></path><path d="M1451.28 -52.43L1451.28 -52.43" stroke="#132e65" stroke-width="1.5"></path><path d="M1451.28 -52.43L1438.42 49.11" stroke="#132e65" stroke-width="1.5"></path><path d="M1451.28 -52.43L1555.66 -45.44" stroke="#132e65" stroke-width="1.5"></path><path d="M1451.28 -52.43L1541.99 53.92" stroke="#132e65" stroke-width="1.5"></path><path d="M1451.28 -52.43L1399.51 204.16" stroke="#132e65" stroke-width="1.5"></path><path d="M1451.28 -52.43L1560.3 241.08" stroke="#132e65" stroke-width="1.5"></path><path d="M1438.42 49.11L1438.42 49.11" stroke="#132e65" stroke-width="1.5"></path><path d="M1438.42 49.11L1541.99 53.92" stroke="#132e65" stroke-width="1.5"></path><path d="M1438.42 49.11L1555.66 -45.44" stroke="#132e65" stroke-width="1.5"></path><path d="M1399.51 204.16L1399.51 204.16" stroke="#132e65" stroke-width="1.5"></path><path d="M1399.51 204.16L1438.42 49.11" stroke="#132e65" stroke-width="1.5"></path><path d="M1399.51 204.16L1560.3 241.08" stroke="#132e65" stroke-width="1.5"></path><path d="M1462.31 398.78L1462.31 398.78" stroke="#132e65" stroke-width="1.5"></path><path d="M1462.31 398.78L1561.23 379.99" stroke="#132e65" stroke-width="1.5"></path><path d="M1462.31 398.78L1422.91 509.26" stroke="#132e65" stroke-width="1.5"></path><path d="M1462.31 398.78L1540.45 491.23" stroke="#132e65" stroke-width="1.5"></path><path d="M1422.91 509.26L1422.91 509.26" stroke="#132e65" stroke-width="1.5"></path><path d="M1422.91 509.26L1540.45 491.23" stroke="#132e65" stroke-width="1.5"></path><path d="M1397.89 663.05L1397.89 663.05" stroke="#132e65" stroke-width="1.5"></path><path d="M1397.89 663.05L1422.91 509.26" stroke="#132e65" stroke-width="1.5"></path><path d="M1397.89 663.05L1240.32 648.38" stroke="#132e65" stroke-width="1.5"></path><path d="M1555.66 -45.44L1555.66 -45.44" stroke="#132e65" stroke-width="1.5"></path><path d="M1555.66 -45.44L1541.99 53.92" stroke="#132e65" stroke-width="1.5"></path><path d="M1555.66 -45.44L1560.3 241.08" stroke="#132e65" stroke-width="1.5"></path><path d="M1555.66 -45.44L1399.51 204.16" stroke="#132e65" stroke-width="1.5"></path><path d="M1541.99 53.92L1541.99 53.92" stroke="#132e65" stroke-width="1.5"></path><path d="M1541.99 53.92L1560.3 241.08" stroke="#132e65" stroke-width="1.5"></path><path d="M1541.99 53.92L1399.51 204.16" stroke="#132e65" stroke-width="1.5"></path><path d="M1560.3 241.08L1560.3 241.08" stroke="#132e65" stroke-width="1.5"></path><path d="M1560.3 241.08L1561.23 379.99" stroke="#132e65" stroke-width="1.5"></path><path d="M1560.3 241.08L1462.31 398.78" stroke="#132e65" stroke-width="1.5"></path><path d="M1560.3 241.08L1438.42 49.11" stroke="#132e65" stroke-width="1.5"></path><path d="M1561.23 379.99L1561.23 379.99" stroke="#132e65" stroke-width="1.5"></path><path d="M1561.23 379.99L1540.45 491.23" stroke="#132e65" stroke-width="1.5"></path><path d="M1540.45 491.23L1540.45 491.23" stroke="#132e65" stroke-width="1.5"></path><path d="M1540.45 491.23L1608.83 695.34" stroke="#132e65" stroke-width="1.5"></path><path d="M1540.45 491.23L1397.89 663.05" stroke="#132e65" stroke-width="1.5"></path><path d="M1608.83 695.34L1608.83 695.34" stroke="#132e65" stroke-width="1.5"></path><path d="M1608.83 695.34L1397.89 663.05" stroke="#132e65" stroke-width="1.5"></path><circle r="5" cx="-57.6" cy="360.46" fill="#132e65"></circle><circle r="5" cx="-69.3" cy="558.5" fill="#132e65"></circle><circle r="5" cx="-110.04" cy="650.06" fill="#132e65"></circle><circle r="5" cx="101.39" cy="514.45" fill="#132e65"></circle><circle r="5" cx="60.22" cy="699.59" fill="#132e65"></circle><circle r="5" cx="197.16" cy="409.27" fill="#132e65"></circle><circle r="5" cx="216.11" cy="515.09" fill="#132e65"></circle><circle r="5" cx="242.15" cy="653.75" fill="#132e65"></circle><circle r="5" cx="360.9" cy="401.8" fill="#132e65"></circle><circle r="5" cx="366.74" cy="504.28" fill="#132e65"></circle><circle r="5" cx="349.91" cy="662.12" fill="#132e65"></circle><circle r="5" cx="539.05" cy="384.14" fill="#132e65"></circle><circle r="5" cx="536.32" cy="541.99" fill="#132e65"></circle><circle r="5" cx="526.57" cy="693.71" fill="#132e65"></circle><circle r="5" cx="664.28" cy="389.84" fill="#132e65"></circle><circle r="5" cx="642.35" cy="528.88" fill="#132e65"></circle><circle r="5" cx="675.25" cy="661.68" fill="#132e65"></circle><circle r="5" cx="836.63" cy="216.49" fill="#132e65"></circle><circle r="5" cx="827.35" cy="379.38" fill="#132e65"></circle><circle r="5" cx="822.17" cy="510.1" fill="#132e65"></circle><circle r="5" cx="821.1" cy="690.79" fill="#132e65"></circle><circle r="5" cx="998.87" cy="-38.28" fill="#132e65"></circle><circle r="5" cx="1000.15" cy="79.61" fill="#132e65"></circle><circle r="5" cx="966.3" cy="230.01" fill="#132e65"></circle><circle r="5" cx="971.98" cy="358.81" fill="#132e65"></circle><circle r="5" cx="1011.42" cy="543.95" fill="#132e65"></circle><circle r="5" cx="1005.37" cy="665.91" fill="#132e65"></circle><circle r="5" cx="1103.66" cy="-53.92" fill="#132e65"></circle><circle r="5" cx="1130.04" cy="90.39" fill="#132e65"></circle><circle r="5" cx="1103.79" cy="211.82" fill="#132e65"></circle><circle r="5" cx="1122.04" cy="389.13" fill="#132e65"></circle><circle r="5" cx="1096.68" cy="511.77" fill="#132e65"></circle><circle r="5" cx="1146.41" cy="695.21" fill="#132e65"></circle><circle r="5" cx="1259.25" cy="-75.29" fill="#132e65"></circle><circle r="5" cx="1273.32" cy="358.2" fill="#132e65"></circle><circle r="5" cx="1311.29" cy="553.35" fill="#132e65"></circle><circle r="5" cx="1240.32" cy="648.38" fill="#132e65"></circle><circle r="5" cx="1451.28" cy="-52.43" fill="#132e65"></circle><circle r="5" cx="1438.42" cy="49.11" fill="#132e65"></circle><circle r="5" cx="1399.51" cy="204.16" fill="#132e65"></circle><circle r="5" cx="1462.31" cy="398.78" fill="#132e65"></circle><circle r="5" cx="1422.91" cy="509.26" fill="#132e65"></circle><circle r="5" cx="1397.89" cy="663.05" fill="#132e65"></circle><circle r="5" cx="1555.66" cy="-45.44" fill="#132e65"></circle><circle r="5" cx="1541.99" cy="53.92" fill="#132e65"></circle><circle r="5" cx="1560.3" cy="241.08" fill="#132e65"></circle><circle r="5" cx="1561.23" cy="379.99" fill="#132e65"></circle><circle r="5" cx="1540.45" cy="491.23" fill="#132e65"></circle><circle r="5" cx="1608.83" cy="695.34" fill="#132e65"></circle><path d="M-76.06 685.48L-76.06 685.48" stroke="hsl(228.5, 77.2%, 51.5%)" stroke-width="1.5"></path><path d="M-76.06 685.48L79.51 686.09" stroke="hsl(228.5, 77.2%, 51.5%)" stroke-width="1.5"></path><path d="M-76.06 685.48L51.83 530.4" stroke="hsl(228.5, 77.2%, 51.5%)" stroke-width="1.5"></path><path d="M-76.06 685.48L254.4 528" stroke="hsl(228.5, 77.2%, 51.5%)" stroke-width="1.5"></path><path d="M-76.06 685.48L352.25 654.89" stroke="hsl(228.5, 77.2%, 51.5%)" stroke-width="1.5"></path><path d="M-76.06 685.48L375.62 522.39" stroke="hsl(228.5, 77.2%, 51.5%)" stroke-width="1.5"></path><path d="M-76.06 685.48L509.05 676.81" stroke="hsl(228.5, 77.2%, 51.5%)" stroke-width="1.5"></path><path d="M51.83 530.4L51.83 530.4" stroke="hsl(228.5, 77.2%, 51.5%)" stroke-width="1.5"></path><path d="M51.83 530.4L79.51 686.09" stroke="hsl(228.5, 77.2%, 51.5%)" stroke-width="1.5"></path><path d="M51.83 530.4L254.4 528" stroke="hsl(228.5, 77.2%, 51.5%)" stroke-width="1.5"></path><path d="M51.83 530.4L375.62 522.39" stroke="hsl(228.5, 77.2%, 51.5%)" stroke-width="1.5"></path><path d="M51.83 530.4L352.25 654.89" stroke="hsl(228.5, 77.2%, 51.5%)" stroke-width="1.5"></path><path d="M499.17 551.72L499.17 551.72" stroke="hsl(228.5, 77.2%, 51.5%)" stroke-width="1.5"></path><path d="M499.17 551.72L509.05 676.81" stroke="hsl(228.5, 77.2%, 51.5%)" stroke-width="1.5"></path><path d="M499.17 551.72L375.62 522.39" stroke="hsl(228.5, 77.2%, 51.5%)" stroke-width="1.5"></path><path d="M499.17 551.72L660.44 490.06" stroke="hsl(228.5, 77.2%, 51.5%)" stroke-width="1.5"></path><path d="M499.17 551.72L352.25 654.89" stroke="hsl(228.5, 77.2%, 51.5%)" stroke-width="1.5"></path><path d="M499.17 551.72L665.14 681.58" stroke="hsl(228.5, 77.2%, 51.5%)" stroke-width="1.5"></path><path d="M855.68 534.66L855.68 534.66" stroke="hsl(228.5, 77.2%, 51.5%)" stroke-width="1.5"></path><path d="M855.68 534.66L961.63 501.48" stroke="hsl(228.5, 77.2%, 51.5%)" stroke-width="1.5"></path><path d="M855.68 534.66L853.7 684.2" stroke="hsl(228.5, 77.2%, 51.5%)" stroke-width="1.5"></path><path d="M855.68 534.66L811.3 387.27" stroke="hsl(228.5, 77.2%, 51.5%)" stroke-width="1.5"></path><path d="M1152.14 682.7L1152.14 682.7" stroke="hsl(228.5, 77.2%, 51.5%)" stroke-width="1.5"></path><path d="M1152.14 682.7L1284.35 689" stroke="hsl(228.5, 77.2%, 51.5%)" stroke-width="1.5"></path><path d="M1152.14 682.7L994.25 683.84" stroke="hsl(228.5, 77.2%, 51.5%)" stroke-width="1.5"></path><path d="M1261.52 204.54L1261.52 204.54" stroke="hsl(228.5, 77.2%, 51.5%)" stroke-width="1.5"></path><path d="M1261.52 204.54L1306.54 71.64" stroke="hsl(228.5, 77.2%, 51.5%)" stroke-width="1.5"></path><path d="M1261.52 204.54L1123.67 238.24" stroke="hsl(228.5, 77.2%, 51.5%)" stroke-width="1.5"></path><path d="M1261.52 204.54L1427.34 243.53" stroke="hsl(228.5, 77.2%, 51.5%)" stroke-width="1.5"></path><path d="M1261.52 204.54L1404.87 97.22" stroke="hsl(228.5, 77.2%, 51.5%)" stroke-width="1.5"></path><path d="M1261.52 204.54L1146.63 357.2" stroke="hsl(228.5, 77.2%, 51.5%)" stroke-width="1.5"></path><path d="M1261.52 204.54L1002.82 233.24" stroke="hsl(228.5, 77.2%, 51.5%)" stroke-width="1.5"></path><path d="M79.51 686.09L79.51 686.09" stroke="hsl(228.5, 77.2%, 51.5%)" stroke-width="1.5"></path><path d="M79.51 686.09L254.4 528" stroke="hsl(228.5, 77.2%, 51.5%)" stroke-width="1.5"></path><path d="M254.4 528L254.4 528" stroke="hsl(228.5, 77.2%, 51.5%)" stroke-width="1.5"></path><path d="M254.4 528L375.62 522.39" stroke="hsl(228.5, 77.2%, 51.5%)" stroke-width="1.5"></path><path d="M254.4 528L352.25 654.89" stroke="hsl(228.5, 77.2%, 51.5%)" stroke-width="1.5"></path><path d="M375.62 522.39L375.62 522.39" stroke="hsl(228.5, 77.2%, 51.5%)" stroke-width="1.5"></path><path d="M352.25 654.89L352.25 654.89" stroke="hsl(228.5, 77.2%, 51.5%)" stroke-width="1.5"></path><path d="M352.25 654.89L375.62 522.39" stroke="hsl(228.5, 77.2%, 51.5%)" stroke-width="1.5"></path><path d="M352.25 654.89L509.05 676.81" stroke="hsl(228.5, 77.2%, 51.5%)" stroke-width="1.5"></path><path d="M352.25 654.89L79.51 686.09" stroke="hsl(228.5, 77.2%, 51.5%)" stroke-width="1.5"></path><path d="M509.05 676.81L509.05 676.81" stroke="hsl(228.5, 77.2%, 51.5%)" stroke-width="1.5"></path><path d="M509.05 676.81L665.14 681.58" stroke="hsl(228.5, 77.2%, 51.5%)" stroke-width="1.5"></path><path d="M509.05 676.81L375.62 522.39" stroke="hsl(228.5, 77.2%, 51.5%)" stroke-width="1.5"></path><path d="M509.05 676.81L660.44 490.06" stroke="hsl(228.5, 77.2%, 51.5%)" stroke-width="1.5"></path><path d="M509.05 676.81L254.4 528" stroke="hsl(228.5, 77.2%, 51.5%)" stroke-width="1.5"></path><path d="M695.07 371.63L695.07 371.63" stroke="hsl(228.5, 77.2%, 51.5%)" stroke-width="1.5"></path><path d="M695.07 371.63L811.3 387.27" stroke="hsl(228.5, 77.2%, 51.5%)" stroke-width="1.5"></path><path d="M695.07 371.63L660.44 490.06" stroke="hsl(228.5, 77.2%, 51.5%)" stroke-width="1.5"></path><path d="M695.07 371.63L855.68 534.66" stroke="hsl(228.5, 77.2%, 51.5%)" stroke-width="1.5"></path><path d="M660.44 490.06L660.44 490.06" stroke="hsl(228.5, 77.2%, 51.5%)" stroke-width="1.5"></path><path d="M660.44 490.06L811.3 387.27" stroke="hsl(228.5, 77.2%, 51.5%)" stroke-width="1.5"></path><path d="M660.44 490.06L665.14 681.58" stroke="hsl(228.5, 77.2%, 51.5%)" stroke-width="1.5"></path><path d="M660.44 490.06L855.68 534.66" stroke="hsl(228.5, 77.2%, 51.5%)" stroke-width="1.5"></path><path d="M665.14 681.58L665.14 681.58" stroke="hsl(228.5, 77.2%, 51.5%)" stroke-width="1.5"></path><path d="M665.14 681.58L853.7 684.2" stroke="hsl(228.5, 77.2%, 51.5%)" stroke-width="1.5"></path><path d="M665.14 681.58L855.68 534.66" stroke="hsl(228.5, 77.2%, 51.5%)" stroke-width="1.5"></path><path d="M811.3 387.27L811.3 387.27" stroke="hsl(228.5, 77.2%, 51.5%)" stroke-width="1.5"></path><path d="M811.3 387.27L949.74 355.42" stroke="hsl(228.5, 77.2%, 51.5%)" stroke-width="1.5"></path><path d="M811.3 387.27L961.63 501.48" stroke="hsl(228.5, 77.2%, 51.5%)" stroke-width="1.5"></path><path d="M853.7 684.2L853.7 684.2" stroke="hsl(228.5, 77.2%, 51.5%)" stroke-width="1.5"></path><path d="M853.7 684.2L994.25 683.84" stroke="hsl(228.5, 77.2%, 51.5%)" stroke-width="1.5"></path><path d="M1002.82 233.24L1002.82 233.24" stroke="hsl(228.5, 77.2%, 51.5%)" stroke-width="1.5"></path><path d="M1002.82 233.24L1123.67 238.24" stroke="hsl(228.5, 77.2%, 51.5%)" stroke-width="1.5"></path><path d="M1002.82 233.24L949.74 355.42" stroke="hsl(228.5, 77.2%, 51.5%)" stroke-width="1.5"></path><path d="M1002.82 233.24L1146.63 357.2" stroke="hsl(228.5, 77.2%, 51.5%)" stroke-width="1.5"></path><path d="M949.74 355.42L949.74 355.42" stroke="hsl(228.5, 77.2%, 51.5%)" stroke-width="1.5"></path><path d="M949.74 355.42L961.63 501.48" stroke="hsl(228.5, 77.2%, 51.5%)" stroke-width="1.5"></path><path d="M961.63 501.48L961.63 501.48" stroke="hsl(228.5, 77.2%, 51.5%)" stroke-width="1.5"></path><path d="M994.25 683.84L994.25 683.84" stroke="hsl(228.5, 77.2%, 51.5%)" stroke-width="1.5"></path><path d="M994.25 683.84L961.63 501.48" stroke="hsl(228.5, 77.2%, 51.5%)" stroke-width="1.5"></path><path d="M994.25 683.84L855.68 534.66" stroke="hsl(228.5, 77.2%, 51.5%)" stroke-width="1.5"></path><path d="M994.25 683.84L1130.15 489.98" stroke="hsl(228.5, 77.2%, 51.5%)" stroke-width="1.5"></path><path d="M1123.67 238.24L1123.67 238.24" stroke="hsl(228.5, 77.2%, 51.5%)" stroke-width="1.5"></path><path d="M1123.67 238.24L1146.63 357.2" stroke="hsl(228.5, 77.2%, 51.5%)" stroke-width="1.5"></path><path d="M1123.67 238.24L949.74 355.42" stroke="hsl(228.5, 77.2%, 51.5%)" stroke-width="1.5"></path><path d="M1123.67 238.24L1306.54 71.64" stroke="hsl(228.5, 77.2%, 51.5%)" stroke-width="1.5"></path><path d="M1146.63 357.2L1146.63 357.2" stroke="hsl(228.5, 77.2%, 51.5%)" stroke-width="1.5"></path><path d="M1146.63 357.2L1130.15 489.98" stroke="hsl(228.5, 77.2%, 51.5%)" stroke-width="1.5"></path><path d="M1130.15 489.98L1130.15 489.98" stroke="hsl(228.5, 77.2%, 51.5%)" stroke-width="1.5"></path><path d="M1130.15 489.98L961.63 501.48" stroke="hsl(228.5, 77.2%, 51.5%)" stroke-width="1.5"></path><path d="M1130.15 489.98L1288.52 562.06" stroke="hsl(228.5, 77.2%, 51.5%)" stroke-width="1.5"></path><path d="M1130.15 489.98L1152.14 682.7" stroke="hsl(228.5, 77.2%, 51.5%)" stroke-width="1.5"></path><path d="M1272.46 -82.04L1272.46 -82.04" stroke="hsl(228.5, 77.2%, 51.5%)" stroke-width="1.5"></path><path d="M1272.46 -82.04L1306.54 71.64" stroke="hsl(228.5, 77.2%, 51.5%)" stroke-width="1.5"></path><path d="M1272.46 -82.04L1455.93 -106.74" stroke="hsl(228.5, 77.2%, 51.5%)" stroke-width="1.5"></path><path d="M1272.46 -82.04L1404.87 97.22" stroke="hsl(228.5, 77.2%, 51.5%)" stroke-width="1.5"></path><path d="M1272.46 -82.04L1261.52 204.54" stroke="hsl(228.5, 77.2%, 51.5%)" stroke-width="1.5"></path><path d="M1272.46 -82.04L1568.67 -79.36" stroke="hsl(228.5, 77.2%, 51.5%)" stroke-width="1.5"></path><path d="M1272.46 -82.04L1123.67 238.24" stroke="hsl(228.5, 77.2%, 51.5%)" stroke-width="1.5"></path><path d="M1306.54 71.64L1306.54 71.64" stroke="hsl(228.5, 77.2%, 51.5%)" stroke-width="1.5"></path><path d="M1306.54 71.64L1404.87 97.22" stroke="hsl(228.5, 77.2%, 51.5%)" stroke-width="1.5"></path><path d="M1306.54 71.64L1427.34 243.53" stroke="hsl(228.5, 77.2%, 51.5%)" stroke-width="1.5"></path><path d="M1306.54 71.64L1455.93 -106.74" stroke="hsl(228.5, 77.2%, 51.5%)" stroke-width="1.5"></path><path d="M1288.52 562.06L1288.52 562.06" stroke="hsl(228.5, 77.2%, 51.5%)" stroke-width="1.5"></path><path d="M1288.52 562.06L1284.35 689" stroke="hsl(228.5, 77.2%, 51.5%)" stroke-width="1.5"></path><path d="M1288.52 562.06L1402.65 670.13" stroke="hsl(228.5, 77.2%, 51.5%)" stroke-width="1.5"></path><path d="M1288.52 562.06L1444.85 531.26" stroke="hsl(228.5, 77.2%, 51.5%)" stroke-width="1.5"></path><path d="M1288.52 562.06L1152.14 682.7" stroke="hsl(228.5, 77.2%, 51.5%)" stroke-width="1.5"></path><path d="M1288.52 562.06L1460.09 390.58" stroke="hsl(228.5, 77.2%, 51.5%)" stroke-width="1.5"></path><path d="M1284.35 689L1284.35 689" stroke="hsl(228.5, 77.2%, 51.5%)" stroke-width="1.5"></path><path d="M1284.35 689L1402.65 670.13" stroke="hsl(228.5, 77.2%, 51.5%)" stroke-width="1.5"></path><path d="M1455.93 -106.74L1455.93 -106.74" stroke="hsl(228.5, 77.2%, 51.5%)" stroke-width="1.5"></path><path d="M1455.93 -106.74L1568.67 -79.36" stroke="hsl(228.5, 77.2%, 51.5%)" stroke-width="1.5"></path><path d="M1455.93 -106.74L1404.87 97.22" stroke="hsl(228.5, 77.2%, 51.5%)" stroke-width="1.5"></path><path d="M1404.87 97.22L1404.87 97.22" stroke="hsl(228.5, 77.2%, 51.5%)" stroke-width="1.5"></path><path d="M1404.87 97.22L1427.34 243.53" stroke="hsl(228.5, 77.2%, 51.5%)" stroke-width="1.5"></path><path d="M1404.87 97.22L1540.68 195.69" stroke="hsl(228.5, 77.2%, 51.5%)" stroke-width="1.5"></path><path d="M1427.34 243.53L1427.34 243.53" stroke="hsl(228.5, 77.2%, 51.5%)" stroke-width="1.5"></path><path d="M1427.34 243.53L1540.68 195.69" stroke="hsl(228.5, 77.2%, 51.5%)" stroke-width="1.5"></path><path d="M1427.34 243.53L1460.09 390.58" stroke="hsl(228.5, 77.2%, 51.5%)" stroke-width="1.5"></path><path d="M1427.34 243.53L1576.63 356.67" stroke="hsl(228.5, 77.2%, 51.5%)" stroke-width="1.5"></path><path d="M1460.09 390.58L1460.09 390.58" stroke="hsl(228.5, 77.2%, 51.5%)" stroke-width="1.5"></path><path d="M1460.09 390.58L1576.63 356.67" stroke="hsl(228.5, 77.2%, 51.5%)" stroke-width="1.5"></path><path d="M1460.09 390.58L1444.85 531.26" stroke="hsl(228.5, 77.2%, 51.5%)" stroke-width="1.5"></path><path d="M1444.85 531.26L1444.85 531.26" stroke="hsl(228.5, 77.2%, 51.5%)" stroke-width="1.5"></path><path d="M1444.85 531.26L1560.29 519.95" stroke="hsl(228.5, 77.2%, 51.5%)" stroke-width="1.5"></path><path d="M1444.85 531.26L1402.65 670.13" stroke="hsl(228.5, 77.2%, 51.5%)" stroke-width="1.5"></path><path d="M1402.65 670.13L1402.65 670.13" stroke="hsl(228.5, 77.2%, 51.5%)" stroke-width="1.5"></path><path d="M1402.65 670.13L1581.26 667.79" stroke="hsl(228.5, 77.2%, 51.5%)" stroke-width="1.5"></path><path d="M1568.67 -79.36L1568.67 -79.36" stroke="hsl(228.5, 77.2%, 51.5%)" stroke-width="1.5"></path><path d="M1568.67 -79.36L1607.64 74.92" stroke="hsl(228.5, 77.2%, 51.5%)" stroke-width="1.5"></path><path d="M1568.67 -79.36L1404.87 97.22" stroke="hsl(228.5, 77.2%, 51.5%)" stroke-width="1.5"></path><path d="M1568.67 -79.36L1540.68 195.69" stroke="hsl(228.5, 77.2%, 51.5%)" stroke-width="1.5"></path><path d="M1607.64 74.92L1607.64 74.92" stroke="hsl(228.5, 77.2%, 51.5%)" stroke-width="1.5"></path><path d="M1607.64 74.92L1540.68 195.69" stroke="hsl(228.5, 77.2%, 51.5%)" stroke-width="1.5"></path><path d="M1607.64 74.92L1404.87 97.22" stroke="hsl(228.5, 77.2%, 51.5%)" stroke-width="1.5"></path><path d="M1540.68 195.69L1540.68 195.69" stroke="hsl(228.5, 77.2%, 51.5%)" stroke-width="1.5"></path><path d="M1540.68 195.69L1576.63 356.67" stroke="hsl(228.5, 77.2%, 51.5%)" stroke-width="1.5"></path><path d="M1540.68 195.69L1460.09 390.58" stroke="hsl(228.5, 77.2%, 51.5%)" stroke-width="1.5"></path><path d="M1576.63 356.67L1576.63 356.67" stroke="hsl(228.5, 77.2%, 51.5%)" stroke-width="1.5"></path><path d="M1576.63 356.67L1560.29 519.95" stroke="hsl(228.5, 77.2%, 51.5%)" stroke-width="1.5"></path><path d="M1560.29 519.95L1560.29 519.95" stroke="hsl(228.5, 77.2%, 51.5%)" stroke-width="1.5"></path><path d="M1581.26 667.79L1581.26 667.79" stroke="hsl(228.5, 77.2%, 51.5%)" stroke-width="1.5"></path><path d="M1581.26 667.79L1560.29 519.95" stroke="hsl(228.5, 77.2%, 51.5%)" stroke-width="1.5"></path><path d="M1581.26 667.79L1444.85 531.26" stroke="hsl(228.5, 77.2%, 51.5%)" stroke-width="1.5"></path><path d="M1581.26 667.79L1284.35 689" stroke="hsl(228.5, 77.2%, 51.5%)" stroke-width="1.5"></path><path d="M1581.26 667.79L1460.09 390.58" stroke="hsl(228.5, 77.2%, 51.5%)" stroke-width="1.5"></path><circle r="25" cx="-76.06" cy="685.48" fill="url(&quot;#SvgjsRadialGradient1856&quot;)"></circle><circle r="25" cx="51.83" cy="530.4" fill="url(&quot;#SvgjsRadialGradient1856&quot;)"></circle><circle r="25" cx="499.17" cy="551.72" fill="url(&quot;#SvgjsRadialGradient1856&quot;)"></circle><circle r="25" cx="855.68" cy="534.66" fill="url(&quot;#SvgjsRadialGradient1856&quot;)"></circle><circle r="25" cx="1152.14" cy="682.7" fill="url(&quot;#SvgjsRadialGradient1856&quot;)"></circle><circle r="25" cx="1261.52" cy="204.54" fill="url(&quot;#SvgjsRadialGradient1856&quot;)"></circle><circle r="5" cx="79.51" cy="686.09" fill="#8b9ad9"></circle><circle r="5" cx="254.4" cy="528" fill="#8b9ad9"></circle><circle r="5" cx="375.62" cy="522.39" fill="#8b9ad9"></circle><circle r="5" cx="352.25" cy="654.89" fill="#8b9ad9"></circle><circle r="5" cx="509.05" cy="676.81" fill="#8b9ad9"></circle><circle r="5" cx="695.07" cy="371.63" fill="#8b9ad9"></circle><circle r="5" cx="660.44" cy="490.06" fill="#8b9ad9"></circle><circle r="5" cx="665.14" cy="681.58" fill="#8b9ad9"></circle><circle r="5" cx="811.3" cy="387.27" fill="#8b9ad9"></circle><circle r="5" cx="853.7" cy="684.2" fill="#8b9ad9"></circle><circle r="5" cx="1002.82" cy="233.24" fill="#8b9ad9"></circle><circle r="5" cx="949.74" cy="355.42" fill="#8b9ad9"></circle><circle r="5" cx="961.63" cy="501.48" fill="#8b9ad9"></circle><circle r="5" cx="994.25" cy="683.84" fill="#8b9ad9"></circle><circle r="5" cx="1123.67" cy="238.24" fill="#8b9ad9"></circle><circle r="5" cx="1146.63" cy="357.2" fill="#8b9ad9"></circle><circle r="5" cx="1130.15" cy="489.98" fill="#8b9ad9"></circle><circle r="5" cx="1272.46" cy="-82.04" fill="#8b9ad9"></circle><circle r="5" cx="1306.54" cy="71.64" fill="#8b9ad9"></circle><circle r="5" cx="1288.52" cy="562.06" fill="#8b9ad9"></circle><circle r="5" cx="1284.35" cy="689" fill="#8b9ad9"></circle><circle r="5" cx="1455.93" cy="-106.74" fill="#8b9ad9"></circle><circle r="5" cx="1404.87" cy="97.22" fill="#8b9ad9"></circle><circle r="5" cx="1427.34" cy="243.53" fill="#8b9ad9"></circle><circle r="5" cx="1460.09" cy="390.58" fill="#8b9ad9"></circle><circle r="5" cx="1444.85" cy="531.26" fill="#8b9ad9"></circle><circle r="5" cx="1402.65" cy="670.13" fill="#8b9ad9"></circle><circle r="5" cx="1568.67" cy="-79.36" fill="#8b9ad9"></circle><circle r="5" cx="1607.64" cy="74.92" fill="#8b9ad9"></circle><circle r="5" cx="1540.68" cy="195.69" fill="#8b9ad9"></circle><circle r="5" cx="1576.63" cy="356.67" fill="#8b9ad9"></circle><circle r="5" cx="1560.29" cy="519.95" fill="#8b9ad9"></circle><circle r="5" cx="1581.26" cy="667.79" fill="#8b9ad9"></circle></g><defs><mask id="SvgjsMask1854"><rect width="1440" height="560" fill="#ffffff"></rect></mask><linearGradient x1="15.28%" y1="-39.29%" x2="84.72%" y2="139.29%" gradientUnits="userSpaceOnUse" id="SvgjsLinearGradient1855"><stop stop-color="rgba(14, 42, 71, 1)" offset="0"></stop><stop stop-color="rgba(0, 69, 158, 1)" offset="0.62"></stop></linearGradient><radialGradient id="SvgjsRadialGradient1856"><stop stop-color="#ffffff" offset="0.1"></stop><stop stop-color="#1735b3" offset="0.2"></stop><stop stop-color="rgba(23, 53, 179, 0)" offset="1"></stop></radialGradient></defs></svg>